<svg id="svg" version="1.1" xmlns="http://www.w3.org/2000/svg" xmlns:xlink="http://www.w3.org/1999/xlink" width="400" height="145.60669456066944" viewBox="0, 0, 400,145.60669456066944"><g id="svgg"><path id="path0" d="M45.000 6.339 C 44.070 6.468,41.939 6.819,41.417 6.929 C 41.325 6.948,40.781 7.051,40.209 7.156 C 39.636 7.262,38.866 7.454,38.498 7.584 C 38.130 7.714,37.791 7.818,37.745 7.816 C 37.373 7.797,34.646 8.725,33.250 9.346 C 30.762 10.452,29.886 10.857,29.667 11.000 C 29.529 11.090,29.042 11.361,28.583 11.603 C 21.609 15.281,14.779 22.323,11.118 29.607 C 10.405 31.027,8.780 34.822,8.577 35.542 C 8.558 35.610,8.527 35.685,8.508 35.708 C 8.490 35.731,8.443 35.881,8.404 36.042 C 8.277 36.568,8.220 36.745,8.040 37.182 C 7.942 37.419,7.822 37.832,7.773 38.099 C 7.602 39.033,7.486 39.586,7.403 39.862 C 7.357 40.015,7.286 40.315,7.245 40.528 C 7.205 40.742,7.097 41.292,7.006 41.750 C 6.555 44.018,6.431 45.593,6.424 49.167 C 6.420 50.954,6.474 52.942,6.545 53.583 C 6.615 54.225,6.713 55.125,6.762 55.583 C 6.812 56.042,6.964 56.904,7.101 57.500 C 7.238 58.096,7.388 58.771,7.433 59.000 C 7.596 59.812,8.368 62.260,8.682 62.957 C 8.857 63.345,9.000 63.740,9.000 63.834 C 9.000 63.928,9.070 64.135,9.155 64.294 C 9.240 64.453,9.477 64.958,9.682 65.417 C 11.620 69.753,14.181 73.511,20.359 81.084 C 22.958 84.270,24.150 85.894,25.438 88.000 C 25.970 88.871,26.483 89.638,26.578 89.706 C 26.672 89.773,26.689 89.829,26.614 89.831 C 26.539 89.832,26.625 90.041,26.805 90.294 C 27.608 91.421,29.107 95.093,29.657 97.278 C 29.955 98.460,30.000 99.156,30.000 102.575 C 30.000 106.780,30.079 107.278,30.883 108.139 C 31.728 109.043,30.797 109.000,49.435 109.000 L 66.721 109.000 67.428 108.586 C 68.722 107.827,68.833 107.368,68.833 102.802 C 68.833 98.867,69.101 96.811,69.815 95.250 C 69.899 95.067,70.139 94.467,70.350 93.917 C 71.327 91.361,73.202 88.144,75.461 85.152 C 76.124 84.273,76.667 83.504,76.667 83.444 C 76.667 83.383,75.023 83.333,73.014 83.333 L 69.361 83.333 68.981 83.958 C 68.772 84.302,68.554 84.621,68.497 84.667 C 68.439 84.712,68.340 84.862,68.277 85.000 C 68.213 85.137,67.941 85.587,67.671 86.000 C 66.880 87.212,64.738 91.664,64.424 92.750 C 64.265 93.300,64.077 93.825,64.006 93.917 C 63.482 94.592,62.961 97.667,62.987 99.929 C 63.002 101.219,62.937 102.477,62.843 102.723 L 62.673 103.172 49.336 103.164 L 36.000 103.155 36.000 100.619 C 36.000 97.381,35.558 95.348,34.037 91.583 C 33.361 89.910,31.601 86.393,31.236 85.987 C 31.106 85.842,31.000 85.673,31.000 85.610 C 31.000 85.472,28.801 82.222,27.807 80.890 C 26.755 79.483,24.332 76.427,23.333 75.249 C 23.012 74.871,22.563 74.309,22.333 74.001 C 21.543 72.940,20.426 71.583,20.296 71.528 C 20.225 71.497,20.167 71.390,20.167 71.289 C 20.167 71.187,20.026 70.950,19.855 70.761 C 19.683 70.572,19.048 69.667,18.442 68.750 C 17.837 67.833,17.265 66.993,17.171 66.882 C 17.077 66.771,17.000 66.608,17.000 66.519 C 17.000 66.430,16.905 66.258,16.790 66.137 C 16.250 65.571,13.833 60.138,13.833 59.490 C 13.833 59.343,13.781 59.170,13.717 59.106 C 13.654 59.043,13.585 58.899,13.565 58.787 C 13.545 58.675,13.407 58.096,13.258 57.500 C 12.881 55.991,12.899 56.082,12.650 54.417 C 12.397 52.727,12.336 46.440,12.558 45.000 C 12.636 44.496,12.729 43.858,12.766 43.583 C 12.802 43.308,12.908 42.708,13.002 42.250 C 13.095 41.792,13.201 41.259,13.238 41.066 C 14.657 33.608,20.303 24.829,26.897 19.827 C 27.435 19.418,27.998 19.008,28.147 18.917 C 28.295 18.825,28.454 18.710,28.500 18.661 C 28.913 18.218,35.152 14.833,35.556 14.833 C 35.605 14.833,35.856 14.746,36.114 14.639 C 36.372 14.532,36.621 14.432,36.667 14.416 C 36.712 14.401,36.862 14.339,37.000 14.280 C 40.688 12.684,50.778 11.561,54.083 12.379 C 54.267 12.424,54.829 12.513,55.333 12.577 C 56.624 12.740,59.243 13.406,60.960 14.008 C 61.761 14.289,62.492 14.540,62.583 14.565 C 62.813 14.629,63.558 14.951,64.788 15.520 C 65.359 15.784,65.862 16.000,65.905 16.000 C 66.071 16.000,69.586 18.068,69.639 18.197 C 69.669 18.272,69.794 18.333,69.917 18.333 C 70.039 18.333,70.164 18.392,70.194 18.464 C 70.225 18.536,70.887 19.057,71.667 19.621 C 73.107 20.665,73.683 21.157,75.352 22.769 L 76.288 23.673 80.157 23.628 L 84.026 23.583 83.144 22.417 C 80.493 18.906,75.337 14.446,71.169 12.056 C 70.058 11.419,66.853 9.814,66.793 9.865 C 66.769 9.885,66.525 9.780,66.250 9.632 C 64.703 8.800,59.677 7.159,59.118 7.304 C 59.046 7.322,58.858 7.270,58.702 7.188 C 58.443 7.052,57.830 6.931,56.417 6.737 C 55.862 6.661,54.970 6.516,54.333 6.398 C 53.486 6.240,46.047 6.194,45.000 6.339 M49.167 30.109 C 46.602 30.390,43.233 31.112,41.917 31.663 C 41.733 31.740,41.283 31.914,40.917 32.051 C 33.977 34.639,28.560 41.802,27.720 49.502 C 27.563 50.933,27.565 56.547,27.722 57.667 C 27.779 58.079,27.836 58.529,27.848 58.667 C 28.026 60.727,30.060 65.760,31.483 67.663 C 31.721 67.982,32.029 68.395,32.166 68.580 C 34.262 71.408,38.812 74.537,42.583 75.744 C 52.500 78.919,66.314 76.241,72.179 70.008 L 73.363 68.750 73.358 63.000 L 73.354 57.250 73.802 56.599 C 74.470 55.630,74.947 55.356,76.167 55.244 C 77.620 55.110,77.757 55.059,77.502 54.752 C 77.193 54.380,59.417 54.460,59.417 54.833 C 59.417 55.022,59.706 55.109,60.595 55.189 C 63.637 55.461,63.885 56.096,63.804 63.417 L 63.750 68.250 63.027 69.375 C 59.571 74.750,50.451 76.040,44.870 71.944 C 44.120 71.393,42.167 69.437,42.167 69.236 C 42.167 69.186,41.989 68.906,41.771 68.614 C 40.327 66.678,39.114 63.352,38.437 59.469 C 36.810 50.135,39.489 40.089,44.756 35.774 C 50.010 31.470,61.847 32.138,65.616 36.951 C 65.726 37.091,66.027 37.441,66.287 37.728 C 67.360 38.917,68.477 40.932,69.255 43.083 C 70.230 45.779,70.368 45.423,70.269 40.473 C 70.223 38.150,70.181 35.637,70.176 34.887 L 70.167 33.524 69.079 33.010 C 68.481 32.728,67.863 32.471,67.704 32.440 C 67.546 32.409,67.291 32.329,67.138 32.262 C 66.985 32.196,66.760 32.126,66.638 32.107 C 66.516 32.089,66.342 32.028,66.250 31.973 C 66.158 31.917,65.746 31.817,65.333 31.750 C 64.921 31.684,64.490 31.553,64.375 31.461 C 64.260 31.368,64.167 31.334,64.167 31.385 C 64.167 31.435,63.923 31.404,63.625 31.316 C 63.327 31.227,62.521 31.048,61.833 30.919 C 60.662 30.697,60.171 30.620,58.562 30.403 C 58.207 30.355,57.692 30.278,57.417 30.232 C 56.780 30.126,49.943 30.024,49.167 30.109 M263.308 30.244 C 262.332 30.366,261.282 30.524,260.975 30.595 C 260.668 30.665,260.304 30.737,260.167 30.754 C 259.639 30.818,258.122 31.269,256.667 31.794 C 256.529 31.843,256.342 31.901,256.250 31.923 C 255.983 31.987,252.758 33.541,252.667 33.650 C 252.621 33.705,252.135 34.050,251.587 34.417 C 248.192 36.687,245.523 39.943,243.867 43.833 C 243.561 44.553,243.293 45.452,243.359 45.541 C 243.376 45.564,243.303 45.746,243.196 45.945 C 241.787 48.578,241.970 58.776,243.488 62.250 C 243.569 62.433,243.805 63.033,244.014 63.583 C 244.395 64.583,245.278 66.343,245.478 66.500 C 245.537 66.546,245.877 67.033,246.235 67.583 C 253.579 78.864,275.838 80.546,286.373 70.616 C 288.725 68.399,291.406 64.215,291.895 62.000 C 291.925 61.862,291.990 61.637,292.039 61.500 C 293.020 58.735,293.424 51.801,292.773 48.896 C 292.730 48.701,292.648 48.254,292.592 47.901 C 291.791 42.860,287.631 36.555,283.609 34.287 C 283.320 34.124,282.858 33.848,282.583 33.674 C 279.029 31.426,274.177 30.205,268.333 30.087 C 266.233 30.045,264.455 30.101,263.308 30.244 M312.167 30.311 C 312.167 30.481,312.242 31.018,312.334 31.502 C 312.706 33.464,312.750 35.842,312.750 53.917 L 312.750 72.750 312.308 73.500 C 311.559 74.770,310.558 75.358,308.918 75.490 C 307.986 75.565,307.742 75.642,307.698 75.875 C 307.621 76.277,327.067 76.334,327.221 75.933 C 327.359 75.572,327.186 75.500,326.181 75.498 C 324.479 75.495,322.540 74.160,322.269 72.804 C 322.198 72.448,322.104 49.045,322.164 46.450 C 322.170 46.193,322.655 46.606,325.353 49.167 C 335.977 59.251,338.625 61.772,340.167 63.269 C 341.037 64.115,342.095 65.132,342.516 65.529 C 342.937 65.925,344.579 67.487,346.165 69.000 C 347.750 70.512,349.185 71.869,349.351 72.015 C 349.518 72.160,350.744 73.319,352.075 74.590 C 355.402 77.766,355.466 77.786,355.078 75.499 C 354.946 74.720,354.771 73.296,354.690 72.333 C 354.481 69.862,354.463 35.768,354.670 34.877 C 355.135 32.874,356.616 31.667,358.606 31.667 C 359.719 31.667,360.091 31.434,359.577 31.058 C 359.255 30.822,341.386 30.712,340.534 30.940 C 339.803 31.136,340.167 31.580,341.086 31.613 C 342.800 31.674,343.799 32.178,344.599 33.387 C 345.403 34.601,345.423 35.010,345.333 48.444 L 345.250 60.970 343.250 59.052 C 342.150 57.996,339.982 55.922,338.433 54.441 C 336.883 52.961,335.189 51.337,334.668 50.833 C 334.147 50.329,333.202 49.437,332.569 48.850 C 331.426 47.791,330.357 46.779,326.655 43.250 C 322.929 39.697,321.383 38.227,318.945 35.917 C 317.590 34.633,315.650 32.777,314.632 31.792 C 312.840 30.057,312.167 29.652,312.167 30.311 M91.500 31.253 C 91.500 31.641,91.555 31.667,92.375 31.670 C 93.904 31.677,95.476 32.771,96.100 34.263 C 96.449 35.101,96.448 72.017,96.098 72.855 C 95.492 74.307,94.182 75.286,92.634 75.444 C 91.639 75.545,91.253 75.735,91.438 76.034 C 91.654 76.383,111.140 76.184,111.048 75.833 C 110.976 75.557,110.834 75.504,110.238 75.526 C 108.376 75.597,106.439 73.908,106.159 71.969 C 105.998 70.860,105.940 55.989,106.094 55.417 C 106.183 55.087,106.308 55.084,116.550 55.122 L 126.917 55.162 126.964 63.456 C 127.015 72.453,126.991 72.743,126.124 73.951 C 125.379 74.988,124.708 75.349,123.285 75.476 C 122.376 75.557,122.083 75.644,122.083 75.833 C 122.083 76.053,123.287 76.083,131.917 76.083 C 140.546 76.083,141.750 76.053,141.750 75.833 C 141.750 75.650,141.483 75.557,140.750 75.483 C 139.005 75.308,138.151 74.755,137.214 73.192 L 136.750 72.417 136.750 53.833 C 136.750 38.595,136.791 35.109,136.978 34.465 C 137.420 32.943,139.098 31.705,140.799 31.645 C 141.712 31.612,142.057 31.298,141.505 31.003 C 141.160 30.818,123.043 30.759,122.367 30.940 C 121.565 31.155,122.018 31.577,123.168 31.686 C 124.570 31.819,124.938 31.985,125.777 32.860 C 127.038 34.175,126.996 33.797,126.954 43.512 L 126.917 52.172 116.550 52.211 C 106.308 52.250,106.183 52.246,106.094 51.917 C 105.917 51.256,105.996 35.909,106.182 34.984 C 106.549 33.155,107.994 31.844,109.799 31.701 C 110.834 31.619,111.197 31.439,111.057 31.074 C 110.980 30.875,109.457 30.839,101.233 30.839 L 91.500 30.839 91.500 31.253 M157.351 30.986 C 156.880 31.284,157.280 31.605,158.175 31.645 C 159.209 31.693,160.055 32.089,160.874 32.908 C 162.061 34.095,162.000 32.965,162.000 53.698 L 162.000 72.337 161.629 73.127 C 160.932 74.611,159.612 75.461,157.958 75.487 C 157.282 75.498,157.167 75.549,157.167 75.833 C 157.167 76.184,176.514 76.382,176.729 76.034 C 176.914 75.735,176.528 75.544,175.567 75.459 C 173.974 75.319,172.645 74.312,172.101 72.833 C 171.849 72.149,171.829 70.447,171.871 53.333 L 171.917 34.583 172.312 33.780 C 172.872 32.643,174.111 31.837,175.493 31.712 C 176.617 31.610,177.203 31.138,176.454 30.937 C 175.858 30.777,157.607 30.824,157.351 30.986 M192.021 30.983 C 191.573 31.268,191.931 31.563,192.802 31.623 C 194.365 31.732,195.667 32.560,196.385 33.901 L 196.750 34.583 196.750 53.583 C 196.750 74.679,196.846 72.892,195.640 74.192 C 194.877 75.013,194.120 75.362,192.883 75.461 C 192.000 75.532,191.833 75.595,191.833 75.856 C 191.833 76.190,225.193 76.361,225.399 76.029 C 225.467 75.919,226.171 72.837,227.423 67.167 C 227.454 67.029,227.671 66.062,227.906 65.016 C 228.141 63.971,228.333 63.090,228.333 63.058 C 228.333 62.937,227.682 63.006,227.602 63.137 C 227.555 63.212,227.480 63.481,227.434 63.734 C 227.388 63.988,227.278 64.283,227.189 64.389 C 227.101 64.496,227.025 64.641,227.021 64.711 C 227.016 64.782,226.860 65.185,226.673 65.607 C 226.486 66.030,226.333 66.441,226.333 66.521 C 226.333 66.601,226.258 66.667,226.167 66.667 C 226.075 66.667,226.000 66.747,226.000 66.845 C 226.000 67.434,223.463 70.354,222.148 71.280 C 219.578 73.089,217.602 73.447,210.625 73.372 L 206.500 73.328 206.500 54.321 C 206.500 41.355,206.557 35.089,206.679 34.605 C 207.070 33.050,208.747 31.752,210.507 31.640 C 211.285 31.590,211.417 31.534,211.417 31.249 C 211.417 30.890,192.574 30.631,192.021 30.983 M374.397 31.075 C 374.232 31.504,374.501 31.667,375.374 31.667 C 376.983 31.667,378.725 32.992,379.151 34.540 C 379.506 35.829,379.329 72.440,378.964 73.105 C 378.158 74.577,377.042 75.326,375.419 75.485 C 374.648 75.561,374.408 75.650,374.365 75.875 C 374.312 76.150,374.872 76.167,384.252 76.167 C 392.116 76.167,394.180 76.123,394.125 75.959 C 394.087 75.845,393.800 75.704,393.486 75.647 C 391.603 75.303,391.424 75.234,390.583 74.535 C 388.922 73.154,388.978 73.932,389.035 52.833 C 389.081 35.652,389.099 34.715,389.392 34.044 C 389.979 32.704,391.585 31.677,393.107 31.670 C 393.948 31.667,394.329 31.397,394.074 30.985 C 393.900 30.703,374.506 30.792,374.397 31.075 M270.524 33.074 C 276.440 34.328,280.571 39.454,281.922 47.220 C 281.965 47.466,282.038 47.873,282.084 48.125 C 283.227 54.354,281.968 62.876,279.207 67.600 C 274.124 76.293,261.579 76.655,256.488 68.254 C 256.181 67.748,255.870 67.333,255.798 67.333 C 255.726 67.333,255.667 67.228,255.667 67.099 C 255.667 66.970,255.487 66.501,255.268 66.057 C 254.397 64.294,253.564 61.581,253.332 59.750 C 253.263 59.200,253.142 58.300,253.065 57.750 C 252.891 56.511,252.874 50.994,253.039 49.417 C 253.178 48.082,253.278 47.540,253.898 44.750 C 254.106 43.813,255.322 40.678,255.617 40.320 C 255.736 40.175,255.833 40.003,255.833 39.936 C 255.833 39.668,257.243 37.764,258.193 36.748 C 261.180 33.555,266.008 32.117,270.524 33.074 M307.417 86.526 C 300.439 87.460,296.872 95.470,300.749 101.500 C 303.395 105.615,309.387 106.915,313.917 104.356 C 315.645 103.379,317.798 100.857,318.067 99.493 C 318.094 99.359,318.218 99.025,318.343 98.750 C 318.750 97.854,318.653 94.140,318.188 92.833 C 316.981 89.442,313.775 86.851,310.440 86.572 C 309.877 86.525,309.192 86.465,308.917 86.439 C 308.642 86.413,307.967 86.452,307.417 86.526 M96.434 86.924 C 96.191 87.167,96.168 88.088,96.207 96.222 L 96.250 105.250 97.876 105.298 L 99.503 105.345 99.460 96.048 L 99.417 86.750 98.060 86.702 C 96.986 86.664,96.647 86.710,96.434 86.924 M122.619 86.770 C 122.553 86.835,122.500 91.039,122.500 96.111 L 122.500 105.333 126.625 105.330 C 133.498 105.326,136.391 104.113,138.205 100.477 C 141.068 94.740,138.421 88.843,132.185 87.065 C 131.193 86.782,122.864 86.525,122.619 86.770 M161.533 86.867 C 161.383 87.017,161.333 89.319,161.333 96.202 L 161.333 105.337 168.292 105.293 L 175.250 105.250 175.250 103.833 L 175.250 102.417 169.958 102.373 L 164.667 102.329 164.667 99.914 L 164.667 97.500 169.247 97.500 L 173.827 97.500 173.928 97.099 C 173.983 96.878,174.003 96.222,173.972 95.641 L 173.917 94.583 169.287 94.539 L 164.658 94.495 164.704 92.122 L 164.750 89.750 169.958 89.706 L 175.167 89.662 175.167 88.265 C 175.167 87.146,175.114 86.849,174.903 86.768 C 174.366 86.562,161.745 86.655,161.533 86.867 M203.333 87.333 C 203.146 87.700,203.041 88.000,203.100 88.000 C 203.159 88.000,203.132 88.094,203.040 88.208 C 202.885 88.402,202.459 89.362,199.546 96.083 C 198.951 97.458,198.276 98.996,198.047 99.500 C 197.818 100.004,197.532 100.642,197.413 100.917 C 197.293 101.192,196.880 102.129,196.495 103.000 C 195.331 105.632,195.238 105.333,197.218 105.333 L 198.927 105.333 199.663 103.574 C 200.068 102.606,200.533 101.593,200.697 101.324 L 200.995 100.833 205.255 100.833 L 209.515 100.833 210.145 102.208 C 210.491 102.965,210.915 103.977,211.087 104.458 L 211.399 105.333 213.201 105.333 C 214.865 105.333,214.991 105.311,214.849 105.042 C 214.681 104.724,214.573 104.476,213.414 101.750 C 212.985 100.742,212.385 99.392,212.081 98.750 C 211.777 98.108,211.332 97.112,211.093 96.536 C 210.854 95.960,210.437 95.007,210.167 94.417 C 209.897 93.827,209.478 92.873,209.237 92.297 C 208.996 91.721,208.666 90.950,208.503 90.583 C 208.341 90.217,208.045 89.542,207.847 89.083 C 207.648 88.625,207.326 87.894,207.130 87.458 L 206.774 86.667 205.224 86.667 L 203.673 86.667 203.333 87.333 M251.051 86.794 C 250.904 86.891,251.074 87.565,251.692 89.338 C 252.155 90.664,253.049 93.250,253.680 95.083 C 254.310 96.917,255.323 99.842,255.930 101.583 C 256.538 103.325,257.074 104.921,257.121 105.131 C 257.261 105.745,260.167 105.627,260.346 105.000 C 260.412 104.771,261.227 102.371,262.158 99.667 C 263.089 96.962,264.042 94.168,264.275 93.458 L 264.700 92.165 265.860 95.541 C 266.498 97.398,267.051 99.029,267.090 99.167 C 267.184 99.501,268.590 103.516,268.724 103.833 C 268.782 103.971,268.932 104.383,269.056 104.750 L 269.284 105.417 270.752 105.417 L 272.221 105.417 272.665 104.083 C 272.910 103.350,273.428 101.850,273.817 100.750 C 274.207 99.650,274.823 97.850,275.188 96.750 C 275.553 95.650,275.918 94.600,275.999 94.417 C 276.081 94.233,276.425 93.258,276.764 92.250 C 277.103 91.242,277.662 89.617,278.006 88.640 C 278.728 86.586,278.778 86.673,276.886 86.669 C 275.168 86.665,275.180 86.652,274.355 89.272 C 273.955 90.543,273.381 92.333,273.079 93.250 C 272.777 94.167,272.140 96.148,271.663 97.653 C 271.103 99.417,270.748 100.305,270.663 100.153 C 270.591 100.023,269.656 97.254,268.585 94.000 C 267.514 90.746,266.522 87.765,266.380 87.375 L 266.121 86.667 264.749 86.667 L 263.377 86.667 262.956 87.875 C 262.724 88.540,261.732 91.521,260.751 94.500 C 258.965 99.921,258.682 100.690,258.672 100.136 C 258.669 99.981,258.580 99.644,258.474 99.386 C 258.369 99.128,258.264 98.831,258.242 98.727 C 258.220 98.623,258.052 98.098,257.870 97.560 C 257.298 95.874,255.833 91.236,255.833 91.110 C 255.833 91.044,255.710 90.710,255.559 90.370 C 255.408 90.029,255.258 89.600,255.225 89.417 C 255.117 88.818,254.427 86.919,254.278 86.813 C 254.062 86.659,251.281 86.642,251.051 86.794 M340.792 86.761 C 340.723 86.831,340.667 91.039,340.667 96.111 L 340.667 105.333 342.330 105.333 L 343.993 105.333 344.038 102.125 L 344.083 98.917 346.083 98.865 L 348.083 98.813 348.799 99.865 C 349.192 100.443,349.998 101.592,350.589 102.417 C 351.179 103.242,351.870 104.233,352.123 104.619 L 352.583 105.321 354.542 105.327 C 355.619 105.331,356.500 105.309,356.500 105.280 C 356.500 105.251,356.219 104.846,355.875 104.380 C 355.531 103.914,355.157 103.394,355.044 103.225 C 354.469 102.365,352.590 99.739,352.498 99.667 C 352.439 99.621,352.250 99.340,352.077 99.042 C 351.903 98.744,351.684 98.497,351.589 98.494 C 351.494 98.491,351.942 98.241,352.583 97.938 C 357.630 95.559,357.020 88.608,351.627 87.051 C 350.666 86.773,341.031 86.515,340.792 86.761 M377.082 86.835 C 376.992 86.981,377.658 88.134,378.379 89.080 C 379.130 90.066,382.699 95.097,382.996 95.588 C 383.226 95.968,383.217 95.983,379.070 101.750 C 377.817 103.492,376.755 105.013,376.709 105.131 C 376.644 105.299,377.031 105.334,378.511 105.297 L 380.395 105.250 381.206 104.083 C 381.652 103.442,382.482 102.252,383.050 101.439 C 383.618 100.627,384.308 99.634,384.583 99.234 C 385.212 98.319,385.154 98.307,385.991 99.526 C 387.230 101.331,387.414 101.582,387.542 101.639 C 387.610 101.669,387.667 101.762,387.667 101.844 C 387.667 101.925,388.205 102.744,388.863 103.663 L 390.060 105.333 392.031 105.333 L 394.002 105.333 393.543 104.702 C 393.290 104.355,392.989 103.961,392.874 103.827 C 392.760 103.693,392.347 103.119,391.958 102.551 C 391.003 101.157,388.377 97.452,387.717 96.567 L 387.184 95.853 388.837 93.551 C 389.746 92.286,390.661 91.033,390.870 90.769 C 391.079 90.504,391.279 90.212,391.313 90.120 C 391.348 90.028,391.477 89.832,391.599 89.685 C 391.722 89.537,391.993 89.177,392.203 88.884 C 392.412 88.591,392.831 88.009,393.134 87.591 C 393.815 86.650,393.751 86.614,391.564 86.692 C 390.069 86.746,389.931 86.780,389.651 87.167 C 389.486 87.396,388.714 88.483,387.936 89.583 C 387.158 90.683,386.243 91.974,385.904 92.451 L 385.286 93.318 385.001 92.951 C 384.843 92.749,384.280 91.946,383.747 91.167 C 383.215 90.388,382.294 89.065,381.701 88.227 L 380.622 86.704 378.908 86.679 C 377.828 86.663,377.153 86.721,377.082 86.835 M309.500 89.521 C 317.333 90.064,316.770 102.591,308.913 102.582 C 303.896 102.576,300.712 96.174,303.745 92.191 C 304.770 90.847,306.402 89.779,307.750 89.571 C 308.117 89.514,308.446 89.440,308.482 89.405 C 308.517 89.371,308.592 89.371,308.649 89.405 C 308.705 89.440,309.088 89.492,309.500 89.521 M132.468 90.448 C 136.970 92.578,136.887 99.579,132.333 101.731 C 131.281 102.228,131.170 102.244,128.458 102.302 L 125.667 102.361 125.667 96.103 L 125.667 89.844 127.708 89.797 C 130.218 89.739,131.275 89.884,132.468 90.448 M350.860 90.083 C 353.212 91.118,353.228 94.381,350.886 95.515 C 350.156 95.868,349.808 95.910,347.042 95.971 L 344.000 96.039 344.000 92.941 L 344.000 89.842 346.375 89.796 C 349.441 89.737,350.181 89.784,350.860 90.083 M205.675 91.792 C 205.884 92.319,206.132 92.851,206.228 92.975 C 206.323 93.098,206.422 93.337,206.448 93.506 C 206.474 93.675,206.642 94.099,206.822 94.448 C 207.003 94.798,207.412 95.699,207.732 96.451 L 208.315 97.820 205.177 97.868 C 201.604 97.923,201.912 98.114,202.705 96.333 C 202.929 95.829,203.554 94.385,204.093 93.125 C 205.220 90.490,205.174 90.529,205.675 91.792 M30.343 113.538 C 28.566 114.447,28.056 116.345,29.171 117.898 C 30.148 119.258,28.673 119.167,49.614 119.167 L 68.221 119.167 68.944 118.743 C 70.956 117.564,70.849 114.684,68.750 113.526 C 68.295 113.275,66.594 113.246,49.667 113.205 L 31.083 113.160 30.343 113.538 M30.234 123.484 C 29.594 123.774,28.842 124.683,28.704 125.330 C 28.408 126.729,28.797 127.797,29.891 128.585 L 30.583 129.083 49.298 129.125 C 69.831 129.171,68.332 129.233,69.540 128.278 C 70.953 127.161,70.538 124.400,68.828 123.543 L 68.083 123.170 49.500 123.172 C 31.741 123.174,30.886 123.188,30.234 123.484 M39.528 133.453 C 37.264 133.884,36.955 137.645,39.083 138.867 L 39.750 139.250 49.500 139.244 C 54.862 139.240,59.400 139.189,59.583 139.131 C 59.767 139.073,59.954 139.020,60.000 139.013 C 60.046 139.005,60.278 138.831,60.517 138.625 C 62.194 137.175,61.776 134.267,59.781 133.511 C 59.323 133.338,40.419 133.283,39.528 133.453 " stroke="none" fill="#d4ac64" fill-rule="evenodd"></path><path id="path1" d="M78.199 23.791 C 79.179 23.820,80.829 23.820,81.866 23.791 C 82.902 23.762,82.100 23.738,80.083 23.738 C 78.067 23.738,77.219 23.762,78.199 23.791 M106.077 43.667 C 106.077 48.204,106.099 50.060,106.125 47.792 C 106.151 45.523,106.151 41.810,106.125 39.542 C 106.099 37.273,106.077 39.129,106.077 43.667 M136.747 53.583 C 136.747 63.483,136.767 67.509,136.792 62.529 C 136.816 57.549,136.816 49.449,136.792 44.529 C 136.767 39.609,136.747 43.683,136.747 53.583 M354.580 52.417 C 354.580 61.583,354.600 65.358,354.625 60.804 C 354.650 56.251,354.650 48.751,354.625 44.138 C 354.600 39.524,354.580 43.250,354.580 52.417 M70.212 37.333 C 70.212 37.746,70.245 37.915,70.284 37.708 C 70.324 37.502,70.324 37.165,70.284 36.958 C 70.245 36.752,70.212 36.921,70.212 37.333 M38.042 53.250 C 38.044 53.617,38.078 53.747,38.118 53.540 C 38.158 53.332,38.156 53.032,38.115 52.873 C 38.073 52.714,38.040 52.883,38.042 53.250 M27.381 53.583 C 27.382 54.042,27.415 54.209,27.453 53.956 C 27.491 53.703,27.490 53.328,27.451 53.123 C 27.411 52.918,27.380 53.125,27.381 53.583 M106.077 63.417 C 106.077 67.817,106.099 69.593,106.125 67.363 C 106.151 65.134,106.151 61.534,106.125 59.363 C 106.099 57.193,106.077 59.017,106.077 63.417 M393.000 75.565 C 393.000 75.601,393.257 75.660,393.572 75.697 C 393.886 75.734,394.107 75.704,394.062 75.632 C 393.981 75.501,393.000 75.440,393.000 75.565 M96.542 76.292 C 99.177 76.317,103.490 76.317,106.125 76.292 C 108.760 76.266,106.604 76.245,101.333 76.245 C 96.063 76.245,93.906 76.266,96.542 76.292 M127.042 76.292 C 129.677 76.317,133.990 76.317,136.625 76.292 C 139.260 76.266,137.104 76.245,131.833 76.245 C 126.563 76.245,124.406 76.266,127.042 76.292 M162.208 76.292 C 164.844 76.317,169.156 76.317,171.792 76.292 C 174.427 76.266,172.271 76.245,167.000 76.245 C 161.729 76.245,159.573 76.266,162.208 76.292 M200.388 76.292 C 204.955 76.316,212.380 76.316,216.888 76.292 C 221.395 76.267,217.658 76.247,208.583 76.247 C 199.508 76.247,195.820 76.267,200.388 76.292 M312.613 76.292 C 315.196 76.317,319.471 76.317,322.113 76.292 C 324.755 76.266,322.642 76.245,317.417 76.245 C 312.192 76.245,310.030 76.266,312.613 76.292 M379.458 76.292 C 382.140 76.317,386.527 76.317,389.208 76.292 C 391.890 76.266,389.696 76.245,384.333 76.245 C 378.971 76.245,376.777 76.266,379.458 76.292 M71.292 83.291 C 72.231 83.321,73.769 83.321,74.708 83.291 C 75.648 83.261,74.879 83.237,73.000 83.237 C 71.121 83.237,70.352 83.261,71.292 83.291 M99.578 96.083 C 99.578 101.033,99.599 103.034,99.625 100.530 C 99.651 98.026,99.651 93.976,99.625 91.530 C 99.599 89.084,99.578 91.133,99.578 96.083 M122.411 96.083 C 122.411 101.033,122.432 103.034,122.458 100.530 C 122.484 98.026,122.484 93.976,122.458 91.530 C 122.432 89.084,122.411 91.133,122.411 96.083 M345.125 95.957 C 345.790 95.989,346.877 95.989,347.542 95.957 C 348.206 95.925,347.662 95.900,346.333 95.900 C 345.004 95.900,344.460 95.925,345.125 95.957 M62.898 100.417 C 62.898 101.608,62.925 102.074,62.957 101.451 C 62.989 100.829,62.989 99.854,62.957 99.285 C 62.924 98.716,62.898 99.225,62.898 100.417 M345.297 98.956 C 345.782 98.990,346.532 98.990,346.964 98.956 C 347.396 98.921,347.000 98.894,346.083 98.894 C 345.167 98.895,344.813 98.923,345.297 98.956 M42.971 103.125 C 46.575 103.150,52.425 103.150,55.971 103.125 C 59.516 103.100,56.567 103.079,49.417 103.079 C 42.267 103.079,39.366 103.100,42.971 103.125 M97.296 105.456 C 97.688 105.491,98.288 105.490,98.629 105.454 C 98.971 105.419,98.650 105.390,97.917 105.390 C 97.183 105.391,96.904 105.420,97.296 105.456 M124.458 105.458 C 125.398 105.487,126.935 105.487,127.875 105.458 C 128.815 105.428,128.046 105.404,126.167 105.404 C 124.287 105.404,123.519 105.428,124.458 105.458 M164.958 105.458 C 166.815 105.485,169.852 105.485,171.708 105.458 C 173.565 105.431,172.046 105.409,168.333 105.409 C 164.621 105.409,163.102 105.431,164.958 105.458 M196.458 105.455 C 196.848 105.490,197.485 105.490,197.875 105.455 C 198.265 105.420,197.946 105.392,197.167 105.392 C 196.387 105.392,196.069 105.420,196.458 105.455 M212.375 105.456 C 212.810 105.490,213.523 105.490,213.958 105.456 C 214.394 105.422,214.037 105.393,213.167 105.393 C 212.296 105.393,211.940 105.422,212.375 105.456 M341.625 105.455 C 342.015 105.490,342.652 105.490,343.042 105.455 C 343.431 105.420,343.113 105.392,342.333 105.392 C 341.554 105.392,341.235 105.420,341.625 105.455 M353.625 105.456 C 354.106 105.490,354.894 105.490,355.375 105.456 C 355.856 105.423,355.462 105.395,354.500 105.395 C 353.537 105.395,353.144 105.423,353.625 105.456 M377.708 105.456 C 378.144 105.490,378.856 105.490,379.292 105.456 C 379.727 105.422,379.371 105.393,378.500 105.393 C 377.629 105.393,377.273 105.422,377.708 105.456 M391.131 105.456 C 391.615 105.490,392.365 105.490,392.797 105.456 C 393.230 105.421,392.833 105.394,391.917 105.394 C 391.000 105.395,390.646 105.423,391.131 105.456 M41.208 109.125 C 45.769 109.150,53.231 109.150,57.792 109.125 C 62.352 109.100,58.621 109.080,49.500 109.080 C 40.379 109.080,36.648 109.100,41.208 109.125 " stroke="none" fill="#ccac64" fill-rule="evenodd"></path><path id="path2" d="M389.080 53.500 C 389.080 63.446,389.100 67.515,389.125 62.542 C 389.149 57.569,389.149 49.431,389.125 44.458 C 389.100 39.485,389.080 43.554,389.080 53.500 M63.740 62.917 C 63.740 65.575,63.763 66.639,63.791 65.281 C 63.819 63.924,63.819 61.749,63.791 60.448 C 63.763 59.147,63.740 60.258,63.740 62.917 M204.629 86.622 C 205.021 86.657,205.621 86.657,205.963 86.621 C 206.304 86.585,205.983 86.557,205.250 86.557 C 204.517 86.558,204.237 86.587,204.629 86.622 " stroke="none" fill="#d4ac6c" fill-rule="evenodd"></path><path id="path3" d="M70.212 34.500 C 70.212 34.912,70.245 35.081,70.284 34.875 C 70.324 34.669,70.324 34.331,70.284 34.125 C 70.245 33.919,70.212 34.087,70.212 34.500 M206.581 54.250 C 206.581 64.608,206.601 68.821,206.625 63.612 C 206.649 58.403,206.649 49.928,206.625 44.779 C 206.601 39.630,206.581 43.892,206.581 54.250 M73.408 63.250 C 73.408 66.183,73.430 67.360,73.458 65.865 C 73.486 64.369,73.486 61.969,73.458 60.531 C 73.430 59.093,73.408 60.317,73.408 63.250 M167.375 89.791 C 168.727 89.819,170.940 89.819,172.292 89.791 C 173.644 89.763,172.537 89.740,169.833 89.740 C 167.129 89.740,166.023 89.763,167.375 89.791 M203.051 100.958 C 204.225 100.987,206.100 100.987,207.218 100.958 C 208.336 100.929,207.375 100.905,205.083 100.906 C 202.792 100.906,201.877 100.929,203.051 100.958 " stroke="none" fill="#d8ac64" fill-rule="evenodd"></path><path id="path4" d="M70.212 34.500 C 70.212 34.912,70.245 35.081,70.284 34.875 C 70.324 34.669,70.324 34.331,70.284 34.125 C 70.245 33.919,70.212 34.087,70.212 34.500 M206.581 54.250 C 206.581 64.608,206.601 68.821,206.625 63.612 C 206.649 58.403,206.649 49.928,206.625 44.779 C 206.601 39.630,206.581 43.892,206.581 54.250 M73.408 63.250 C 73.408 66.183,73.430 67.360,73.458 65.865 C 73.486 64.369,73.486 61.969,73.458 60.531 C 73.430 59.093,73.408 60.317,73.408 63.250 M167.375 89.791 C 168.727 89.819,170.940 89.819,172.292 89.791 C 173.644 89.763,172.537 89.740,169.833 89.740 C 167.129 89.740,166.023 89.763,167.375 89.791 M203.051 100.958 C 204.225 100.987,206.100 100.987,207.218 100.958 C 208.336 100.929,207.375 100.905,205.083 100.906 C 202.792 100.906,201.877 100.929,203.051 100.958 " stroke="none" fill="#d8ac64" fill-rule="evenodd"></path></g></svg>